<?xml version="1.0" encoding="UTF-8" standalone="no"?>
<svg
   version="1.1"
   width="1920px"
   height="1080px"
   id="svg36"
   sodipodi:docname="wallpaper.svg"
   inkscape:version="1.1.1 (3bf5ae0d25, 2021-09-20)"
   xmlns:inkscape="http://www.inkscape.org/namespaces/inkscape"
   xmlns:sodipodi="http://sodipodi.sourceforge.net/DTD/sodipodi-0.dtd"
   xmlns:xlink="http://www.w3.org/1999/xlink"
   xmlns="http://www.w3.org/2000/svg"
   xmlns:svg="http://www.w3.org/2000/svg"
   xmlns:rdf="http://www.w3.org/1999/02/22-rdf-syntax-ns#"
   xmlns:cc="http://creativecommons.org/ns#"
   xmlns:dc="http://purl.org/dc/elements/1.1/"
   xmlns:x="adobe:ns:meta/"
   xmlns:xapRights="http://ns.adobe.com/xap/1.0/rights/">
  <sodipodi:namedview
     id="namedview38"
     pagecolor="#ffffff"
     bordercolor="#666666"
     borderopacity="1.0"
     inkscape:pageshadow="2"
     inkscape:pageopacity="0.0"
     inkscape:pagecheckerboard="0"
     showgrid="false"
     inkscape:zoom="6.9708943"
     inkscape:cx="1775.9558"
     inkscape:cy="1036.1655"
     inkscape:window-width="1920"
     inkscape:window-height="1011"
     inkscape:window-x="0"
     inkscape:window-y="0"
     inkscape:window-maximized="1"
     inkscape:current-layer="svg36" />
  <metadata
     id="metadata2">
<?xpacket begin="" id=""?>    <x:xmpmeta>
      <rdf:RDF>
        <rdf:Description
           rdf:about="">
          <xapRights:Marked>True</xapRights:Marked>
        </rdf:Description>
        <rdf:Description
           rdf:about="">
          <xapRights:WebStatement
             rdf:resource="http://www.xmple.com/wallpaper/green-linear-highlight-gradient-pink-1920x1080-c2-00ff7f-ff1493-l-67-a-135-f-21-image/" />
        </rdf:Description>
        <rdf:Description
           rdf:about="">
          <xapRights:UsageTerms>
            <rdf:Alt>
              <rdf:li
                 xml:lang="en">This work is licensed under a &lt;a rel=&quot;license&quot; href=&quot;http://creativecommons.org/licenses/by-nc-nd/4.0/&quot;&gt;Creative Commons Attribution-NonCommercial-NoDerivatives 4.0 International License&lt;/a&gt;.</rdf:li>
            </rdf:Alt>
          </xapRights:UsageTerms>
        </rdf:Description>
        <rdf:Description
           rdf:about="">
          <dc:title>
            <rdf:Alt>
              <rdf:li
                 xml:lang="en">green linear highlight gradient pink spring green deep pink 1920x1080 #00ff7f #ff1493 135° 67%</rdf:li>
            </rdf:Alt>
          </dc:title>
        </rdf:Description>
        <rdf:Description
           rdf:about="">
          <cc:license
             rdf:resource="http://creativecommons.org/licenses/by-nc-nd/4.0/" />
        </rdf:Description>
        <rdf:Description
           rdf:about="">
          <cc:attributionName>xmple.com</cc:attributionName>
        </rdf:Description>
        <rdf:Description
           rdf:about="">
          <cc:morePermissions
             rdf:resource="http://www.xmple.com" />
        </rdf:Description>
      </rdf:RDF>
    </x:xmpmeta>
<?xpacket end="r"?>  </metadata>
  <title
     id="title4">green linear highlight gradient pink spring green deep pink 1920x1080 #00ff7f #ff1493 135° 67%</title>
  <desc
     id="desc6">green linear highlight gradient pink spring green deep pink 1920x1080 #00ff7f #ff1493 135° 67%</desc>
  <style
     type="text/css"
     id="style8"><![CDATA[.x{font:20px verdana;fill:#fff;stroke:#555;stroke-width:20px;opacity:0.35;}.o{stroke:none;opacity:0.01;}]]></style>
  <defs
     id="defs17">
    <linearGradient
       id="p1"
       x1="21.875%"
       y1="0%"
       x2="78.125%"
       y2="100%">
      <stop
         offset="0%"
         style="stop-color:#00ff7f;stop-opacity:1"
         id="stop10" />
      <stop
         offset="67%"
         style="stop-color:#ff1493;stop-opacity:1"
         id="stop12" />
      <stop
         offset="100%"
         style="stop-color:#00ff7f;stop-opacity:1"
         id="stop14" />
    </linearGradient>
  </defs>
  <rect
     width="1920"
     height="1080"
     x="0"
     y="0"
     fill="#00ff7f"
     id="rect19" />
  <rect
     width="1920"
     height="1080"
     x="0"
     y="0"
     fill="url(#p1)"
     id="rect21" />
  <path
     class="x o"
     d="M5 5h2v1H6v1h1v1H5zM4 3h4v1h1v5H8v1H4V9H3V4h1v5h4V4H4zm7 1h1v2h1V4h1v2h-1v1h1v2h-1V7h-1v2h-1V7h1V6h-1zm4 0h5v5h-1V5h-1v4h-1V5h-1v4h-1zm6 0h3l-1 1h-1v3h1V5l1-1v5h-2v2h-1zm4-2h1v6h1v1h-2zm3 2h3l-1 1h-1v1h1V5l1-1v3h-2v1h2v1h-3V4zm4 4h1v1h-1zm2-4h3v1h-2v3h2v1h-3zm4 0h3v5h-3l1-1h1V5h-1v3l-1 1zm4 0h5v5h-1V5h-1v4h-1V5h-1v4h-1z"
     id="path23" />
  <text
     x="4"
     y="1074"
     class="x o"
     id="text25">© xmple.com</text>
  <a
     xlink:href="https://www.xmple.com"
     id="a29">
    <text
       text-anchor="end"
       x="1910"
       y="22"
       class="x o"
       id="text27">xmple.com</text>
  </a>
</svg>
